<svg id="Capa_1" data-name="Capa 1" xmlns="http://www.w3.org/2000/svg" viewBox="0 0 118.5 118"><defs><style>.cls-1,.cls-2{fill:none;stroke:#fff;stroke-miterlimit:10;}.cls-1{stroke-width:5px;}.cls-2{stroke-width:3px;}</style></defs><title>small icon_technology-data4_w-01</title><path class="cls-1" d="M81.45,78.73v0.08a27.3,27.3,0,0,0,27.3-27.3h0c0-15.08-12.23-28.1-27.3-28.37a32.72,32.72,0,0,0-20.2,6.29,18,18,0,0,0-26.59,3.11,21.21,21.21,0,0,0-4.14,11.31,13.13,13.13,0,0,0-2.93-.29c-9,0-16.29,7.84-16.29,17.51s7.29,17.51,16.29,17.51L40,78.38"/><polyline class="cls-2" points="65.75 69.5 76.98 71.41 76.62 60.03"/><path class="cls-1" d="M79.36,76.64A48,48,0,0,1,80,81.72,19.8,19.8,0,1,1,76.15,70"/></svg>